<svg xmlns="http://www.w3.org/2000/svg" width="1600" height="900" viewBox="0 0 1600 900">
<defs>
  <linearGradient id="g" x1="0" y1="0" x2="1" y2="1">
    <stop offset="0" stop-color="#0d263f"/>
    <stop offset="1" stop-color="#4d9bb8"/>
  </linearGradient>
  <filter id="blur"><feGaussianBlur stdDeviation="16"/></filter>
</defs>
<rect width="1600" height="900" fill="url(#g)"/>
<g opacity=".22" fill="none" stroke="#ffffff" stroke-width="5">
  <path d="M120 620 C350 250, 530 790, 800 390 S1300 420, 1510 180"/>
  <path d="M100 260 C400 500, 600 140, 900 430 S1310 650, 1550 480"/>
</g>
<g opacity=".22" fill="#fff">
  <circle cx="260" cy="300" r="44"/><circle cx="510" cy="500" r="33"/>
  <circle cx="790" cy="260" r="52"/><circle cx="1060" cy="520" r="41"/>
  <circle cx="1310" cy="290" r="48"/>
</g>
<g opacity=".18" stroke="#fff" stroke-width="10">
  <line x1="260" y1="300" x2="510" y2="500"/>
  <line x1="510" y1="500" x2="790" y2="260"/>
  <line x1="790" y1="260" x2="1060" y2="520"/>
  <line x1="1060" y1="520" x2="1310" y2="290"/>
</g>
</svg>